<?xml version="1.0" encoding="UTF-8"?>
<svg width="17px" height="21px" viewBox="0 0 17 21" version="1.1" xmlns="http://www.w3.org/2000/svg" xmlns:xlink="http://www.w3.org/1999/xlink">
    <!-- Generator: Sketch 58 (84663) - https://sketch.com -->
    <title>bell</title>
    <desc>Created with Sketch.</desc>
    <g id="MachineApps" stroke="none" stroke-width="1" fill="none" fill-rule="evenodd">
        <g id="v4" transform="translate(-518.000000, -509.000000)" fill="#FFFFFF" fill-rule="nonzero">
            <g id="Group-2" transform="translate(505.000000, 504.000000)">
                <g id="bell" transform="translate(13.000000, 5.000000)">
                    <path d="M16.0954797,16.7119395 C16.034427,16.6718672 15.5749292,16.3464082 15.1148229,15.3618281 C14.2698613,13.5537773 14.0925042,11.0067891 14.0925042,9.18852539 C14.0925042,9.18060937 14.0923419,9.17277539 14.0920579,9.16490039 C14.0828493,6.76183594 12.6596515,4.69030078 10.6230462,3.7608457 L10.6230462,2.33936719 C10.6230462,1.04942578 9.58681315,0 8.31310324,0 L8.12166948,0 C6.84795957,0 5.8117265,1.04942578 5.8117265,2.33936719 L5.8117265,3.76076367 C3.76830603,4.69321289 2.34226856,6.77533008 2.34226856,9.18852539 C2.34226856,11.0067891 2.16491141,13.5537363 1.31994983,15.3618281 C0.859884092,16.3463672 0.400386284,16.6718262 0.339292994,16.7119395 C0.082019656,16.8323203 -0.0448320828,17.1104062 0.0143545776,17.3922246 C0.0741091702,17.676832 0.337224098,17.8730508 0.624557281,17.8730508 L5.08473257,17.8730508 C5.10964046,19.6014902 6.50488788,21 8.21740664,21 C9.9299254,21 11.3251728,19.6014902 11.3500807,17.8730508 L15.810256,17.8730508 C16.0975486,17.8730508 16.3607041,17.676832 16.4204587,17.3922246 C16.4795642,17.1104062 16.3527531,16.8322793 16.0954797,16.7119395 Z M7.02876488,2.33936719 C7.02876488,1.72901367 7.51905273,1.23247852 8.12171005,1.23247852 L8.3131438,1.23247852 C8.91580112,1.23247852 9.40608897,1.72901367 9.40608897,2.33936719 L9.40608897,3.36135352 C9.02200446,3.28108594 8.62441128,3.23883984 8.21724437,3.23883984 C7.81019917,3.23883984 7.41272769,3.28104492 7.02880544,3.36123047 L7.02880544,2.33936719 L7.02876488,2.33936719 Z M8.21740664,19.7675215 C7.17594048,19.7675215 6.32643544,18.9219023 6.30173038,17.8730918 L10.1330423,17.8730918 C10.1083778,18.9218613 9.2588728,19.7675215 8.21740664,19.7675215 L8.21740664,19.7675215 Z M10.6676289,16.6405312 C10.6675072,16.6405312 2.01132629,16.6405312 2.01132629,16.6405312 C2.1165966,16.4746641 2.22373298,16.2868535 2.33022028,16.0745977 C3.14577109,14.4486152 3.55930694,12.1318066 3.55930694,9.18852539 C3.55930694,6.5874375 5.64885162,4.47131836 8.21720381,4.47131836 C10.785556,4.47131836 12.8751007,6.5874375 12.8751007,9.19057617 C12.8751007,9.19816406 12.8752224,9.20571094 12.8755063,9.21325781 C12.8778186,12.1447266 13.2913139,14.453209 14.104593,16.0745977 C14.2110803,16.2868945 14.3182572,16.4746641 14.423487,16.6405312 L10.6676289,16.6405312 Z" id="Shape"></path>
                </g>
            </g>
        </g>
    </g>
</svg>