<?xml version="1.0" encoding="UTF-8"?>
<svg width="24px" height="20px" viewBox="0 0 24 20" version="1.1" xmlns="http://www.w3.org/2000/svg" xmlns:xlink="http://www.w3.org/1999/xlink">
    <!-- Generator: Sketch 58 (84663) - https://sketch.com -->
    <title>danger (1)</title>
    <desc>Created with Sketch.</desc>
    <g id="MachineApps" stroke="none" stroke-width="1" fill="none" fill-rule="evenodd">
        <g id="v4" transform="translate(-1159.000000, -31.000000)" fill="#FFFFFF" fill-rule="nonzero">
            <g id="danger-(1)" transform="translate(1159.000000, 31.000000)">
                <path d="M23.7888077,17.8142762 L13.2592637,0.697130517 C12.993154,0.264525467 12.5153566,0 11.9999653,0 C11.4845741,0 11.0067766,0.264479518 10.7406669,0.697130517 L0.211216674,17.8142762 C-0.062627408,18.2594711 -0.0707367928,18.8147587 0.190076023,19.2673972 C0.450888839,19.7200818 0.940123806,20 1.4704682,20 L22.5295093,20 C23.0598537,20 23.5490887,19.7200358 23.8099015,19.2673972 C24.0707143,18.8147127 24.0626518,18.2594711 23.7888077,17.8142762 Z M12.0078403,5.92101454 C12.6125754,5.92101454 13.1242636,6.25542767 13.1242636,6.84816321 C13.1242636,8.65683369 12.9071852,11.2559561 12.9071852,13.0646266 C12.9071852,13.5358283 12.3799814,13.7333609 12.0078403,13.7333609 C11.5117147,13.7333609 11.0930267,13.5357824 11.0930267,13.0646266 C11.0930267,11.2559561 10.8759952,8.65683369 10.8759952,6.84816321 C10.8759952,6.25542767 11.3721208,5.92101454 12.0078403,5.92101454 Z M12.023356,17.1228433 C11.3411364,17.1228433 10.8294014,16.5756887 10.8294014,15.9525352 C10.8294014,15.3141728 11.3410895,14.7822271 12.023356,14.7822271 C12.6590755,14.7822271 13.2017949,15.3141728 13.2017949,15.9525352 C13.2017949,16.5756887 12.6590755,17.1228433 12.023356,17.1228433 Z" id="Shape"></path>
            </g>
        </g>
    </g>
</svg>